<?xml version="1.0" standalone="no"?>
<!DOCTYPE svg PUBLIC "-//W3C//DTD SVG 1.1//EN" "http://www.w3.org/Graphics/SVG/1.1/DTD/svg11.dtd" >
<svg xmlns="http://www.w3.org/2000/svg">
<metadata></metadata>
<defs>
<font id="svgfont_1regular" horiz-adv-x="2048" >
<font-face units-per-em="2048" ascent="1638" descent="-410" />
<missing-glyph horiz-adv-x="500" />
<glyph horiz-adv-x="0" />
<glyph unicode="&#xd;" />
<glyph unicode="1" d="M32 904l8 -16v-42l20 -68q54 -190 192 -364q154 -194 322 -248q96 -52 242 -82l1124 -10l10 1072q-36 234 -140 402q-66 106 -190 214q-144 126 -314 188q-78 16 -78 24q-102 10 -106 20h-262l-14 -10h-34q-82 -8 -282 -102q-188 -86 -320 -276q-122 -176 -170 -392v-34 l-8 -14v-262zM284 802v54l52 48q78 28 78 44l348 198q18 -74 50 -106v-16q-84 -40 -84 -48q-144 -74 -178 -106h-6l-4 4q-58 -38 -68 -44q-68 -42 -126 -66l-30 8zM476 672v14l30 34q144 74 180 106h4l4 -4q66 40 160 96l204 122l74 38l130 78l256 146l10 -2q24 -6 54 -48 q0 -44 -130 -106l-562 -330q-96 -54 -180 -106h-6l-4 4l-10 -10l-156 -86h-4q-54 12 -54 54zM680 506v38l6 6q52 38 110 72l126 74q126 70 126 76l6 -4l18 20q60 22 98 52l126 74q30 8 30 18h4l4 -4l10 10q82 44 82 52q118 60 136 78h40q38 -30 38 -48q-4 -38 -88 -82 q-18 0 -18 -10l-142 -78l-4 -4l-136 -82l-4 4l-16 -14q-74 -34 -82 -50q-124 -64 -174 -100h-4l-6 4q-102 -74 -232 -136q-32 0 -54 34zM846 394v10l52 48h6l4 -4l10 14q66 28 102 58l58 34q46 18 48 30q48 16 48 28h6l4 -4l14 14l180 106q90 44 238 136h10l28 -28v-6 l-10 -14q-50 -24 -82 -52h-4l-6 4l-504 -296q-164 -96 -184 -96zM850 1136v14q24 112 34 112l-6 14l6 6q42 176 54 184l-6 14l14 34l-4 14l14 30q0 62 68 88q20 0 64 -54v-14l-50 -180q-38 -144 -48 -164l6 -16l-20 -62q0 -44 -54 -74q-52 0 -72 54zM1064 1170v4 q10 10 10 40l38 136q58 24 58 34q48 18 48 28h6l4 -4l102 68q124 82 160 82h14q54 -14 54 -54v-28l-24 -40q-12 0 -18 -2t-6 -8l-252 -144q-168 -96 -190 -112h-4z" />
<glyph unicode="2" d="M34 948q0 -162 122 -390q92 -170 308 -328q266 -152 450 -152h1044l10 1056q0 46 -38 214q-62 172 -172 312q-156 170 -254 220q-252 132 -404 132h-196q-52 0 -108 -14q-202 -34 -430 -210q-166 -166 -214 -258q-118 -230 -118 -386v-196zM382 1446v74q106 132 200 184 l102 60q162 54 260 64h102l48 -6q162 -144 162 -328v-28q0 -84 -58 -206q-152 -214 -372 -214q-240 0 -382 210q-62 118 -62 190zM874 1612q26 -50 50 -64h4l6 6l14 -16h54l14 16l20 -6q24 14 38 54v88q-24 40 -58 54h-72l-20 -10q-34 -20 -50 -64v-58zM1080 904v6 q8 48 64 48h14q54 -68 464 -694h-220z" />
<glyph unicode="3" d="M26 918l4 -4q16 -108 26 -108q6 -136 140 -318q124 -168 252 -246l112 -68q158 -64 266 -84l1132 -10l10 1094l-10 14v36q-18 106 -54 186q-44 148 -234 352q-232 194 -428 236l-112 24h-266l-14 -8h-44l-4 -6q-96 -24 -144 -40q-170 -54 -382 -254q-104 -124 -166 -246 q-36 -108 -44 -108l-30 -118v-44l-10 -14v-266zM380 762q138 148 152 148q190 190 206 190l466 448v44q-26 42 -26 68l-44 108q22 16 44 48l118 -34l-48 -38v-6q122 -348 162 -460q82 -234 88 -246l-6 -6l10 -8q34 -122 60 -168q0 -10 -70 -48l-224 -128l-60 -34 q-92 -54 -102 -54q-62 -42 -144 -88q-210 -120 -244 -138l-16 14q-32 76 -44 78q-152 178 -210 232q-44 70 -68 78zM414 772q0 -32 82 -104l-4 -4l54 -54h10q100 82 226 156q0 28 -30 64q-78 140 -98 158h-10q-34 -12 -210 -202q-20 0 -20 -14zM566 600q0 -22 118 -152l4 4 h6l4 -4q188 112 202 112v30l-6 6l6 4l-10 10q-38 68 -50 68l6 6q-42 68 -54 68q-22 -10 -26 -20l-4 6zM668 1008q96 -158 104 -162q18 -48 30 -50h14l24 24l6 -4l166 122q50 20 50 54h-6l-138 246h-14q-190 -168 -236 -230zM816 762l108 -172h20l172 104q68 26 68 48 q-6 28 -30 54l-78 148q-36 0 -84 -50l-74 -48l-102 -74v-10zM830 290q44 108 118 108q112 0 128 -132h-114q-132 12 -132 24zM934 1258l4 -6q42 -92 54 -98l-4 -4l58 -104q28 -58 34 -58h16l68 58l4 -4l16 14q54 34 54 44h4l6 -4l92 74v24l-4 4q-34 104 -40 104q0 30 -10 30 q-52 180 -72 190h-10l-270 -254v-10zM1096 954l108 -202h24l210 128v20q-70 224 -88 240h-14q-220 -150 -240 -176v-10zM1296 512v64l10 24q38 48 78 64h60q92 -44 92 -108v-34l-8 -10q0 -64 -104 -88h-14q-60 0 -114 88z" />
<glyph unicode="4" d="M34 918l4 -6l36 -160q120 -358 448 -554q238 -108 310 -108l1138 -10l10 1046q2 302 -296 620q-150 160 -432 248l-116 26h-264l-6 -6l-54 -10q-110 -20 -160 -50q-26 0 -44 -14q-126 -42 -330 -234q-142 -168 -214 -380q-10 -74 -20 -84v-46l-10 -14v-264zM218 1026v90 l6 26q30 148 54 200l60 -16q118 -52 190 -210q54 -228 100 -278q112 -126 248 -126q156 0 326 166q118 160 118 258v70l-4 20q0 102 -150 224q-98 64 -284 96q-144 54 -144 164v10l4 56q0 28 194 58h116q178 -68 304 -248q42 -84 54 -96h10q48 14 200 20q28 2 74 -84v-10 h-44l-34 -36v-4l118 -120l20 16h6l-6 -36l20 -30v-4h-4l-30 30q-18 0 -124 -116v-10l118 -120h6l50 46v-10l-40 -46v-4l40 -44v-10l-56 44l-114 -114v-10l120 -120h4l46 40v-16l-30 -34v-6l30 -40v-10h-10v6l-30 34q-20 0 -130 -120v-4q112 -120 124 -120l40 34h6v-10 l-30 -34v-4l30 -40v-10h-10q0 14 -36 40l-118 -120v-6l24 -30v-4h-10q-18 14 -34 14h-6l-20 -14h-10v4l26 30v6l-120 120h-6l-120 -120v-6q16 -24 30 -24v-10h-10l-30 20h-4l-30 -20h-6v4l26 30v6l-120 120h-10l-114 -116v-10l30 -24l-10 -10l-36 24l-34 -24h-10v4l30 36v4 l-120 120l-120 -120l14 -20v-4l-38 14q0 20 -120 130h-10l-56 -50h-4v6l50 54v16l-100 98h-6q-10 0 -40 -104q-70 54 -70 70l60 174q-126 92 -134 116q-108 116 -140 218zM308 1402v10q104 208 354 348h6l4 -4l-4 -20q0 -180 194 -256q150 -26 214 -60q180 -92 180 -244 q0 -116 -84 -230q-98 -130 -266 -164h-60q-52 10 -84 30q-70 32 -114 126q-50 178 -80 248q-134 216 -260 216zM548 572q96 -114 114 -114q10 0 120 110q0 24 -30 44q-116 20 -124 30h-26q-36 -20 -54 -54v-16zM678 444l120 -120h4l114 114v6l-118 118h-6l-114 -114v-4z M792 598h6v10h-6v-10zM812 572l120 -118l120 118v6l-56 54h-10l-20 -4q-154 -16 -154 -46v-10zM946 438l116 -120h10l120 120l-126 124h-4l-116 -114v-10zM1016 632l46 -44h4l96 90h4v-6l-84 -90v-14q106 -114 120 -114q12 0 118 114v10l-114 114h-14l-16 -10h-4v6l10 14v6 l-6 4q-34 -6 -34 -20q-120 -44 -126 -60zM1192 718l4 -6l6 6l128 -130h10l116 114v10l-116 120q-18 0 -114 -104l-14 10h-6l-14 -16v-4zM1216 434l114 -120q20 0 130 120v4l-120 120h-10l-114 -114v-10zM1326 858l4 -6l16 6q0 -28 120 -136h10l114 110q0 30 -114 130h-16 l-20 -16l-70 -68v8l86 90v6l-36 34h-4l-56 -98l-34 -50v-10zM1350 568l116 -114h14l116 114v4l-120 120h-10l-116 -114v-10zM1420 1042q0 -16 46 -50h4q82 72 120 120l-120 120h-14q-10 -86 -36 -190zM1436 1386q14 -124 24 -124h10l116 114v4l-36 36h-14q-100 0 -100 -20 v-10zM1480 976l126 -124l114 114v16q-106 114 -120 114l-120 -114v-6zM1480 1242q112 -120 126 -120l114 114v10l-114 120q-20 0 -126 -114v-10zM1486 702l114 -120q16 0 130 116q0 20 -120 130h-10l-114 -116v-10zM1490 428l110 -114q28 0 130 114v10q-112 120 -124 120 l-116 -114v-16z" />
<glyph unicode="a" d="M134 78h1732v1756l-858 196l-874 -202v-1750zM268 356v156q96 28 159 116t63 190q0 20 -2 40q-32 16 -94 16h-100v200h142q-14 64 -14 128q0 196 125 311t321 115q30 0 106 -16t106 -28q-24 -146 -34 -224q-86 34 -160 34q-182 0 -182 -190q0 -68 24 -130h260v-200h-236 q-20 -126 -22 -132q-18 -68 -84 -140h492v-246h-870zM1106 1450l338 152h240v-1246h-292v988l-234 -108q-12 54 -30 127t-22 87z" />
<glyph unicode="b" d="M134 78h1730v1746l-852 196l-878 -212v-1730zM302 354v190q282 320 298 342q164 192 164 348q0 180 -166 180q-114 0 -218 -100l-70 210q46 56 151 100t185 44q174 0 270 -122q92 -110 92 -286t-116 -356q-78 -122 -246 -290q2 -2 70 -2h302v-258h-716zM994 752v190h298 v-190h-298zM1160 1478q256 162 290 162h188v-1286h-232l-8 1006l-196 -104q-26 146 -42 222z" />
<glyph unicode="c" d="M138 76h1734v1748l-854 196l-880 -210v-1734zM284 1436v192h666v-146l-418 -1114h-198l412 1064v4h-462zM880 770v160h248v-160h-248zM1112 416l40 174q96 -60 214 -60q92 0 156 63t64 171q0 120 -72 183t-214 63q-68 0 -130 -10l70 628h520v-192h-378l-34 -260 q46 4 66 4q146 0 246 -86q128 -104 128 -310q0 -186 -115 -311t-301 -125q-156 0 -260 68z" />
<glyph unicode="d" d="M28 1052q0 -102 10 -186q8 -74 8 -80q26 -218 286 -464t478 -246h1164v1156q0 198 -250 479t-444 287q-40 2 -140 12q-88 12 -136 12q-440 0 -708 -266t-268 -704zM378 1150q0 122 114 122h50h48v390q6 42 36 48h50q78 0 78 -28v-410h214v474q0 36 78 36q66 0 78 -30 v-480h212v402q0 36 82 36q78 0 78 -36v-402q154 -12 162 -14q58 -20 58 -110q0 -114 -134 -128v-408q0 -22 -40 -62q-42 -38 -64 -38h-334q-32 -40 -32 -78q0 -124 252 -204q234 -74 308 -88q142 -26 248 -40q-57 -8 -138 -8q-69 0 -156 6q-216 18 -404 94 q-254 102 -254 264q0 26 6 54h-370q-32 0 -69 44t-37 78v390q-84 14 -106 44q-14 22 -14 82z" />
<glyph unicode="e" d="M32 1052q0 -322 133 -531t423 -367q32 -18 115 -47t109 -29h1160v1152q0 198 -249 478t-443 286q-40 2 -138 12q-88 12 -138 12q-438 0 -705 -265t-267 -701zM268 578q22 118 26 164q10 0 33 -4t31 -4q-12 -110 -24 -164q-12 0 -33 4t-33 4zM334 910q26 90 34 156 q34 -8 64 -8q-8 -68 -32 -170q-14 4 -36 12t-30 10zM394 1206v36q0 126 236 214q30 12 266 72v328h162v-328q220 -36 306 -72q186 -80 228 -250h-1198zM546 248q12 60 26 164q26 -8 64 -8v-40q0 -48 -26 -128q-42 10 -64 12zM600 572q14 110 24 164q14 0 34 -4q20 -2 32 -2 l-20 -158q-22 -2 -40 -2zM652 902q14 110 18 164q35 -8 62 -8h10q-16 -108 -28 -170q-40 12 -62 14zM964 244v160h68v-160h-68zM964 572v164h68v-164h-68zM964 902v168h66v-168h-66zM1270 1058q44 10 72 12q22 -134 26 -160q-44 -12 -62 -14q-6 24 -16 80q-12 54 -20 82z M1336 734q38 10 66 14q20 -112 28 -162q-60 -14 -64 -16q-24 140 -30 164zM1398 412h4q17 0 60 14q20 -102 34 -162q-44 -14 -72 -16q-14 98 -26 164zM1542 1058h4q17 0 60 16l40 -164q-44 -12 -62 -14zM1622 734q42 12 64 14q26 -102 38 -162q-14 2 -60 -16zM1700 410 q42 12 72 14q18 -100 34 -154q-38 -12 -64 -16q-18 56 -42 156z" />
<glyph unicode="f" d="M30 1052q0 -320 133 -536t423 -362q34 -18 112 -46q88 -30 114 -30h1158v1152q0 198 -249 479t-441 285q-42 2 -140 12q-88 12 -136 12q-440 0 -707 -265t-267 -701zM286 1034q0 30 58 182q64 166 104 178q28 10 158 10q114 0 128 -4q70 -12 92 -66q18 -42 54 -158 q40 -130 40 -156l-16 -26l-28 -14q-24 0 -76 152t-62 152l-22 -18l124 -460h-124v-232q0 -18 4 -51t4 -49q0 -70 -52 -70q-20 0 -44 26v368l-52 8v-376q-24 -30 -46 -30q-24 0 -44 22v384h-126l132 460q-6 6 -26 6q-12 0 -63 -139t-81 -139l-24 14zM498 1542q0 106 110 106 q108 0 108 -108q0 -44 -31 -77t-77 -33t-78 32t-32 80zM1022 302v1512h34v-1512h-34zM1178 1030q0 22 50 174q56 160 84 170q42 18 176 18q156 0 184 -24t80 -166q52 -144 52 -190q0 -38 -38 -38q-28 0 -68 124l-58 162h-34v-850l-40 -22q-22 0 -50 30v380h-48v-236 q0 -174 -52 -174q-22 0 -46 26v852h-36q-6 -10 -52 -178q-26 -100 -68 -100q-36 0 -36 42zM1382 1528q0 44 36 78t76 34q44 0 78 -34t34 -78q0 -46 -31 -76t-81 -30q-46 0 -79 31t-33 75z" />
<glyph unicode="g" d="M38 1056q0 -72 21 -281t295 -453q268 -240 464 -240h1152v1148q0 46 -52 172q-44 98 -64 132q-288 482 -842 482q-426 0 -696 -256q-278 -266 -278 -704zM190 1392q0 28 153 224t177 196q26 0 518 -371t492 -395q0 -30 -152 -228t-176 -198q-14 0 -184 124 q-828 602 -828 648zM550 1216l426 -312l26 480zM1346 718q114 150 128 166l142 -98q-112 -166 -132 -166q-16 0 -138 98zM1444 268q0 38 85 158t85 208q0 20 -2 40q58 -32 120 -168t62 -224q0 -152 -170 -152q-60 0 -114 32q-66 42 -66 106z" />
<glyph unicode="h" d="M36 1054q0 -322 133 -530t423 -366q30 -16 113 -46t111 -30h1154v1148q0 198 -248 478t-440 284q-40 2 -138 12q-88 12 -136 12q-438 0 -705 -264t-267 -698zM412 780q0 44 16 56q24 24 44 40v26q0 148 188 414q194 278 330 294q80 136 114 210q90 -34 90 -142l-4 -80 q192 -166 228 -320q104 -66 140 -88q110 -74 110 -102q0 -66 -98 -120q-82 -44 -130 -44q-150 0 -256 46l22 -528q1 -15 1 -29q0 -195 -132 -195q-141 0 -393 194q-270 206 -270 368z" />
<glyph unicode="i" d="M30 1054q0 -174 20 -276q24 -216 286 -456t474 -240h1160v1150q0 218 -238 489t-452 275q-44 2 -140 12q-88 12 -136 12q-440 0 -707 -264t-267 -702zM492 404v1254h1086v-1254h-1086zM546 1426h980v138h-980v-138zM564 1510h150v-38h-142q-8 8 -8 38zM690 912 q0 -152 102 -254t254 -102q148 0 255 103t107 253q0 146 -108 254t-254 108q-152 0 -254 -105t-102 -257zM776 1472v38h84v-38h-84zM936 1510h90l-8 -38h-76q-6 8 -6 38z" />
<glyph unicode="j" d="M36 1054q0 -176 20 -278q24 -214 286 -454t474 -240h1152v744h-320v50h320v356q0 210 -238 476q-166 182 -326 248q-146 62 -398 62q-438 0 -704 -264t-266 -700zM62 812v48h724v-48h-724zM306 1434q98 112 166 162q108 80 238 202q74 -118 112 -178q90 -174 262 -274 q108 -64 320 -128q154 -46 196 -60q146 -58 156 -114q-30 -16 -58 -16q-56 0 -163 37t-163 37q-38 0 -38 -36q0 -18 186 -188q190 -178 202 -216q-16 -16 -44 -16q-24 0 -190 128l-188 142l172 -206q152 -180 152 -202q0 -32 -44 -32q-24 0 -210 168l-202 182 q56 -70 150 -196q134 -184 134 -216q0 -50 -30 -50q-40 0 -202 192l-178 210l238 -400q-6 -44 -38 -44q-46 0 -258 324q-258 396 -266 404q-70 86 -198 196q-196 170 -214 188zM338 664l166 22q46 0 162 -42q180 -62 210 -70q2 -16 -12 -52l-214 74q-110 38 -146 38 q-64 0 -158 -20q2 10 -8 50zM662 218v52h-1q0 2 133 2q62 0 184 -43t188 -43q142 0 336 86q4 -8 12 -23t10 -21q-204 -96 -362 -96q-62 0 -187 43t-183 43h-130zM1748 374q18 30 56 58q18 12 74 44l70 -10h-2q-10 -22 -72 -58q-68 -42 -90 -64q-6 0 -36 30z" />
<glyph unicode="k" d="M32 952q0 -84 40 -204q120 -360 428 -536q224 -130 410 -130h1050l10 944v15q0 472 -384 783q-282 188 -494 188h-192q-124 0 -296 -74q-268 -116 -428 -370q-144 -226 -144 -424v-192zM476 784v4q108 58 128 80v10l-74 122v6q84 42 128 78q-8 34 -68 128v6l4 4l128 80v4 l-78 134l276 158q56 -110 78 -138l134 74h6l78 -130q24 4 128 70h14q0 -18 74 -128h10l124 68l158 -266v-10l-272 -152q0 -12 74 -138q-120 -80 -138 -80l-74 128l-24 -4l-236 -134q0 -26 78 -148q-88 -40 -138 -74h-6l-4 6q-60 114 -74 124h-14l-258 -154h-4zM654 1730 l20 10h4q8 -2 70 -108v-6l-26 -18q-40 50 -68 122zM742 936q72 -138 90 -148h10q110 58 142 84v16q-62 112 -88 138q-154 -70 -154 -90zM860 434v18l124 70l84 -128q46 10 134 74q12 0 82 -128v-16q-108 -58 -132 -58h-10q-70 118 -80 118h-4l-124 -70l20 -38v-6l-64 6h-4v4 l44 30q0 18 -70 124zM1138 600v10h8l242 144h6q0 -18 74 -134l-262 -142zM1146 1158l84 -138h6q100 44 148 84v4q-16 52 -84 154q-140 -72 -154 -88v-16zM1482 610v16q68 26 128 74q16 -10 84 -134v-10q-14 0 -132 -74zM1542 838q4 10 128 78h4q42 -84 80 -128l24 6v-50h-4 q-12 34 -20 34h-6q-16 0 -132 -74q0 16 -74 134z" />
<glyph unicode="l" d="M28 916l4 -6q22 -144 74 -256q150 -324 462 -480q124 -64 260 -88l1134 -10l10 1094l-10 16v34q-38 184 -114 316q-72 122 -216 258q-216 164 -386 202l-114 24h-266l-4 -4q-64 -8 -64 -16l-40 -4q-310 -82 -530 -350q-90 -108 -152 -270q-22 -88 -30 -88 q-10 -102 -18 -108v-264zM316 812v10l802 462q12 20 34 176v6q-60 56 -74 98v92q18 38 68 60q50 0 50 34v40l14 14h16l10 -10v-24l-10 -54v-16q54 -46 74 -98v-88q-30 -42 -54 -54h-46l-18 -20v-20l-10 -78v-20l4 -4l324 186h6l-46 -270v-34l-8 -14l-108 -674v-30l126 -216 v-4h-72q-28 28 -104 158q0 28 -84 58z" />
<glyph unicode="m" d="M28 928l18 -88q60 -274 262 -472q142 -142 328 -216q96 -38 250 -64h1076l10 1086l-34 166q-134 388 -428 556q-182 104 -266 112l-112 24h-266l-14 -8h-34q-220 -40 -408 -180q-286 -214 -374 -602v-34l-8 -14v-266zM562 1532v20l10 30l14 10q50 20 50 28l14 -4l138 58 q104 44 124 54h4l4 -4h6l48 24l26 -10q22 0 68 -118l60 -152l-30 -54q-124 -38 -124 -54l104 -256l44 -112h6l-6 -14l10 -10l34 34q76 56 148 64h48l10 -10q74 0 138 -122l114 14h108q48 -22 54 -50l-6 -4v-124l6 -4l-1032 -4v8q68 138 122 178q50 10 50 20q44 0 44 14v10 l-104 250q-18 74 -34 74h-4l-94 -44h-48l-20 10zM646 1512l20 -34h4l-4 -14q2 -20 14 -20q22 -80 40 -88h30q38 16 38 24l16 -6l14 16q116 30 132 54l20 -6l10 16q24 0 24 10q34 0 34 14v20q-22 64 -34 68v6l6 4v6l-16 18v10l6 6h-6l-4 4q-18 44 -24 44h-10l-20 -14h-10 l-6 4v-4q-86 -34 -88 -44l-14 4l-14 -10q-112 -38 -114 -48h-4l-6 4h-4l-10 -14h-10l-6 4v-4l-4 -6v-24zM754 618v10q14 24 58 40h974v-394h-830q-102 10 -138 26v4l4 6v4l-14 14l-4 36q-16 112 -40 156l4 6v14l-4 6l24 24v4z" />
<glyph unicode="n" d="M28 928l6 -4l24 -128q68 -226 216 -388q242 -264 612 -318h1074l10 1084q-22 126 -30 126q0 108 -142 324q-200 306 -554 382l-112 26h-264l-6 -6l-162 -34q-464 -156 -622 -602q-22 -90 -30 -90q-10 -102 -20 -106v-266zM440 1512l6 30v4l-6 4q10 0 26 44v46l18 8h16 l10 -8v-54l-20 -44v-46l20 -24q100 0 142 -78v-54l-26 -48v-40q12 -22 40 -30q82 0 112 -48l-44 -26q0 18 -34 26q-88 0 -118 68v58l26 50v34q-20 30 -44 30q-124 16 -124 98zM538 894l6 14l290 166q274 158 420 240q238 134 276 134q178 0 234 -202q-14 -90 -24 -112 q-28 -76 -124 -122q30 -110 30 -172l-14 -108v-10h20l126 74h6v-290q-364 -230 -402 -230h-452l-24 10v6q88 42 98 62q0 12 -44 20l-4 6q-114 48 -196 148q-130 206 -222 366zM626 1624l30 94l-4 20l38 24l16 -40q-30 -76 -30 -98q0 -32 30 -44q52 -4 88 -20q48 -32 48 -78 v-24q-20 -38 -24 -78q0 -16 20 -40q128 -26 128 -54v-4l-36 -20l-18 14l-44 10q-94 0 -94 98l24 98q-10 28 -44 44l-54 10q-52 0 -74 88zM822 1718v34l16 48q0 36 48 36v-40l-18 -40v-38l8 -20l98 -30h6l4 6q50 -44 50 -88v-6l-30 -92v-6l24 -34q128 -22 128 -54v-4l-24 -10 h-24l-6 4q-120 14 -142 84v28q0 22 24 64v44l-34 30q-128 14 -128 84zM1440 1330q0 -30 60 -108q0 -28 14 -28q36 -80 64 -108h14l40 24q48 52 48 108q0 40 -24 98q-40 44 -102 54h-54q-60 -22 -60 -40z" />
<glyph unicode="o" d="M28 922l4 -4l10 -54q24 -126 74 -222q90 -218 270 -344q20 -26 152 -108l158 -68l122 -30l1146 -10l8 1082q-24 146 -38 172q-56 246 -252 430q-190 180 -442 238l-108 24h-4l-6 -4l-4 4h-250l-6 -4q-76 -8 -156 -36q-358 -120 -542 -422q-86 -142 -112 -266l-24 -112 v-256l4 -4zM460 942q0 208 176 304h6l4 -18q46 -186 168 -276q200 -124 344 -124l-6 -44q-16 -150 -102 -270v-14l82 -78q-38 0 -38 -36h-26l-14 -10h-10l-24 114l-50 -4h-14q-152 0 -340 108q-156 142 -156 348zM518 952q24 -168 50 -168h20q24 0 28 16v34q-20 36 -28 104 v34q0 14 -40 20q-18 -4 -30 -30v-10zM598 750q14 -64 54 -64q34 4 34 16v14q0 42 -50 64h-20q-18 -10 -18 -30zM646 1364v20q0 66 34 162q100 206 286 206h34q80 0 182 -54q180 -96 260 -308h-4l14 -60v-108q-36 -228 -128 -344v-4l98 -90l-14 -18v-6l4 -4l-24 4h-10 l-48 -34h-10v4q-10 104 -26 128l-58 -4h-24q-116 0 -276 64q-174 68 -240 236q-50 122 -50 210zM794 1198h10l24 24v10q-18 82 -30 88q0 114 -38 114q-40 0 -40 -31q0 -205 74 -205zM808 1138q22 -54 74 -54q16 0 30 26v28q-26 42 -60 54h-20l-24 -18v-36zM1088 372v4 q10 0 16 -34q-12 0 -16 30zM1098 318h6l4 4l6 -18v-6q-8 0 -16 20zM1114 284v4l14 -14v-6zM1472 692v4q34 -20 34 -30v-4zM1526 632h10v-10zM1540 598v14l10 -10v-4h-10zM1550 578v10l10 -10v-10zM1556 540v14h4l6 -14h-10zM1560 494h10v-58h-4zM1566 406v20h4v-20h-4z M1570 396h10v-14h-6zM1580 362v6l10 -10v-6zM1590 338v4l10 -10v-4zM1610 308h4l10 -10v-4zM1638 268v10h6l10 -10h-16z" />
<glyph unicode="p" d="M26 922l6 -4q8 -78 30 -138l44 -118q114 -306 462 -482q124 -62 260 -88l1136 -10l8 1096l-8 16v34q-68 328 -330 574q-218 166 -388 202l-114 24h-270l-4 -4q-168 -24 -316 -104q-114 -48 -290 -230q-112 -144 -176 -306q-22 -88 -30 -88q-10 -102 -20 -108v-266z M518 1488v4l34 26h10q18 -34 24 -34h40q60 0 148 44q160 122 290 122h4v-4q-102 -62 -142 -134q-70 -122 -172 -216q-44 -14 -44 -24q4 -12 88 -152q128 -218 246 -434l122 -226q-16 0 -38 -18h-6zM768 304v30l6 4q20 100 216 260h4q12 -42 74 -132l-20 -34v-20l30 -30h60 q78 30 102 84v34q-16 30 -58 30l-104 166l30 46q90 208 148 348q96 236 392 384h20l50 -94q48 -92 68 -280v-526q-196 -156 -432 -304h-398q-108 10 -188 34z" />
<glyph unicode="q" d="M28 914l10 -10q0 -102 94 -306q56 -124 236 -300q216 -172 462 -216l1138 -10l10 1098l-10 14v34q-46 240 -202 444q-186 198 -260 226q-134 82 -256 108l-114 24h-266l-4 -4q-152 -24 -198 -50q-322 -118 -502 -408q-84 -136 -114 -266l-24 -114v-264zM408 1548 q0 36 112 124h50q108 -44 108 -134l-10 -40q-36 -92 -122 -92l-50 4q-88 38 -88 138zM560 746q0 146 68 260l90 -48h14v4l-4 24q-144 242 -144 266v20l10 20q50 74 114 74q44 -12 64 -30l104 -172h4l20 24q240 148 266 148q44 -6 44 -38l-6 -20q-28 -30 -264 -164h-6l-24 6 l-6 -6q42 -92 64 -108h16l320 188h54l330 -172h10l4 4q56 124 64 124h14l10 -60v-196h-4q-24 -50 -60 -50h-24l-118 64h-10l-4 -4q14 -50 24 -154q0 -216 -178 -394q-74 -54 -162 -98h-296l-82 10q-316 164 -316 478zM682 716q0 -120 94 -226q120 -138 300 -138 q140 0 276 108q118 142 118 286l-14 118v10q88 30 88 40v8l-20 26h-4l-6 -6l-8 16q-72 26 -110 54h-4q-10 0 -182 -98l-172 -100q-104 -58 -118 -58h-4q-42 0 -80 44l-44 78q-32 58 -40 60h-20q-24 0 -50 -158v-64z" />
<glyph unicode="r" d="M30 862l6 -6q4 -48 20 -68v-6l-6 -4l10 -10q4 -34 10 -34l50 -128l34 -70q80 -124 206 -236q172 -152 408 -212l60 -14h1140l10 1152q-10 10 -10 34q-44 174 -62 192l-80 152q-78 90 -78 104q-184 176 -276 210q-62 36 -196 84h-10l-6 -4v4l-14 6l-54 14h-374l-6 -4 q-48 -6 -68 -20l-4 4h-6q-196 -68 -294 -138q-150 -104 -228 -220l-92 -144q-54 -156 -70 -176l6 -14l-10 -16l-16 -58v-374zM312 1402v6l24 38q62 102 98 128q10 36 182 114l44 -14l20 -36q-10 -10 -10 -34l-58 -40h-6l-4 6l-54 -34q-136 -60 -138 -74v-26l64 -172 q10 0 144 -36q148 -38 170 -72q62 -122 70 -122h10q16 0 28 58q18 74 60 94q38 0 58 -34v-36l-92 -264q-18 -26 -50 -40l-4 4q-40 0 -80 120h-30q-10 0 -14 -30v-20l-176 -24l-6 4l-114 -20l-64 330h6q-14 78 -78 226zM494 690h4l-4 14q0 4 44 24l206 94h14l208 -172 q-44 -18 -44 -30v-20q142 -122 142 -152l20 -68h-6l34 -108l-4 -6l-24 6h-98l-6 4q-24 118 -40 122q-128 144 -156 144q-26 -4 -26 -16v-28q94 -108 94 -182v-26l-4 -4l-98 24q-20 0 -120 138h-14q-22 0 -54 -30h-10zM582 1358v50l10 24q30 52 98 74l30 -6q98 -34 98 -118 q0 -74 -94 -118h-48l-20 10q-46 16 -74 84zM994 1368v10q0 20 30 68q42 46 104 54h14l44 -18q70 -46 70 -100v-28q0 -64 -108 -114v6l-26 -6h-4q-42 0 -88 44q-26 28 -36 84zM1014 734q0 28 60 68h4l6 -4l4 4l134 70v38q-10 14 -46 158v44l6 4q0 64 122 174q40 54 94 82 l270 74q88 -128 114 -324l-4 -14l-26 4q-26 0 -48 74l4 14l-4 6q-24 96 -40 122h-34q-102 -34 -104 -44v-10l168 -172l4 6q26 -10 26 -30l-208 -246h-14l-50 44h-98l-10 -10q0 -48 -30 -68l-240 -114q-42 0 -60 50zM1330 502v30q196 234 442 506h10l4 -4l-4 -26v-294l4 -34 l-34 -80v-28q0 -20 34 -60l-4 -24v-148l4 -60h-14q0 16 -54 100q-114 174 -114 206l6 4v6l-10 10h-10q-10 0 -88 -98v-20l94 -114l78 -98v-10l-34 6h-114l-4 -6v6q-124 138 -192 230z" />
<glyph unicode="s" d="M20 906l4 -4q26 -152 74 -258q152 -328 466 -484q126 -64 262 -90l1142 -10l10 1104l-10 14v40q-28 136 -104 292q-58 116 -228 282q-218 164 -390 202l-114 24h-266l-6 -4l-54 -10q-166 -30 -352 -144q-100 -62 -226 -212q-90 -106 -158 -278q-24 -88 -30 -88 q-10 -104 -20 -108v-268zM276 1188v4l84 46h10v-6l-14 -14q0 -42 50 -74l-6 -6l34 -40v-10l-74 -38h-10q-12 4 -64 114v4l6 6zM376 1232v6l10 10h4v-16h-14zM396 1248l10 10h10v-6l-10 -10h-6zM450 1268l4 14h16v-6l-10 -8h-10zM474 1276v6l10 10h6v-6l-10 -10h-6zM494 1286 v6l10 10h6v-16h-16zM548 1312v4l10 10h6l4 -4l-10 -10h-10zM574 1322v4l10 10h4v-4l-10 -10h-4zM594 1332v4l10 10h4v-14h-14zM648 1350v10l10 10h4v-10l-10 -10h-4zM668 1366l10 14h4l6 -4l-10 -10h-10zM692 1376v4l10 10h4v-14h-14zM746 1396v14h16v-4l-10 -10h-6z M766 1410l10 10h10l-10 -14h-4zM790 1416v14l6 6l10 -10l-10 -10h-6zM810 1430l6 14l-6 46v40q10 30 56 74q22 22 88 34h6l4 -6q42 0 98 -58h30q6 12 120 54v54q38 50 64 50q40 0 64 -20q92 -188 98 -188l-4 -4q24 -32 24 -50q28 -34 118 -222v-26l-8 -10q-24 -48 -84 -48 h-150l-10 -10v-16l154 -286q18 -48 30 -50q16 -50 30 -50v-4l-6 -6q20 -16 20 -74v-420h-202v134l-10 10h-6q-10 0 -34 -124v-20h-212q50 230 74 412q0 48 -44 112l-46 80l-118 198q-52 86 -60 94l6 4l-16 16l6 4q-18 18 -44 74v40q0 8 44 34h450l24 -4v24l-134 258h-14 l-34 -26q-100 -20 -100 -58l6 -20v-6l-20 -48q-50 -80 -118 -80l-66 20q-50 54 -74 54z" />
<glyph unicode="t" d="M16 922l4 -6l26 -114q44 -210 216 -406q234 -264 620 -322h1084l10 1096q-20 126 -50 212q-44 142 -168 298q-208 264 -514 330l-114 26h-268l-14 -10h-36l-84 -20q-222 -52 -420 -242q-96 -92 -184 -238q-68 -148 -98 -288v-34l-10 -14v-268zM204 1100v40q14 0 14 20h30 l14 -10l-4 -6l64 -104q30 6 30 16q-22 60 -104 192v50q14 30 70 50l48 -26l114 -188l862 490q0 28 -94 174v4q96 -16 244 -128q12 -34 18 -34l90 -158v-50q-14 -28 -44 -44h-50q-40 24 -40 38q-84 158 -104 170h-4q-40 -20 -40 -30v-36q60 -330 114 -494q24 -78 54 -140 q44 -122 302 -400v-232h-40q-234 212 -302 212q-40 -16 -40 -70v-14l16 -128h-214l-14 18l4 6v4l-8 10q-48 132 -80 208q-60 144 -278 358q-100 98 -282 246h-24l-20 -14q0 -22 104 -194v-44q-36 -54 -74 -54l-36 10l-124 202q-24 0 -28 -14v-16q58 -90 58 -118 q-4 -20 -24 -30h-16q-18 10 -84 124h-4q-16 0 -60 -30l-10 20v10l50 40v4zM670 1184l28 -30l6 6l30 -26q120 -74 128 -88l6 4q124 -94 242 -94q38 0 60 20l-6 6l34 54q0 40 10 40l6 84l-16 316l-4 16q-22 0 -104 -50q-112 -54 -158 -94q-14 0 -70 -36l-144 -88l-4 4 q-44 -24 -44 -34v-10zM906 1174v34l36 66q20 24 84 44h14q48 0 114 -70v-4l-4 -6l14 -10v-4l6 -40q-8 -50 -20 -50l4 -4q-18 -42 -78 -70l-6 6l-14 -10h-20l-30 10h-6l-4 -6q-90 54 -90 114z" />
<glyph unicode="u" d="M24 914l10 -10q0 -102 94 -306q60 -128 238 -302q216 -172 464 -216l1140 -10l10 1100l-10 16v34l-34 138q-136 358 -430 532q-142 86 -258 110l-112 24h-268l-4 -4l-158 -36q-366 -128 -544 -424q-86 -144 -112 -266l-26 -114v-266zM376 1032v44q0 28 192 306 q64 124 128 124l312 -70q234 -50 266 -112q22 -20 94 -148v-6q-22 0 -70 -64q-30 -138 -94 -138l-118 24h-14q-82 -24 -124 -94q-24 -132 -94 -132h-10q-56 18 -114 18h-4q-70 0 -134 -88q-32 -138 -94 -138l-98 24l454 672v10q0 10 -104 34l-108 -158q-122 -178 -144 -178 h-40q-46 0 -82 70zM424 508v6h16l88 -26h6q34 0 68 46q44 182 164 182h24l88 -20h30q74 40 74 114q42 108 144 108l118 -20q64 0 88 124q54 98 120 98h68l40 -10h64l44 36q44 152 80 152q14 -18 24 -74l-34 -88q-38 -100 -148 -100l-104 16h-30l-4 -6q-46 0 -74 -128 q-60 -88 -124 -88q-46 0 -124 20q-46 0 -74 -46q-14 -78 -24 -78q0 -60 -124 -100h-40l-84 20h-24q-30 -10 -64 -44q-16 -74 -24 -74q0 -62 -110 -108h-38q-42 24 -100 88zM682 320q36 32 54 120l4 4q0 40 104 90h64l94 -20q36 12 70 44q10 58 24 78q0 60 114 104l4 -4h20 l24 4q28 -20 80 -20h14q38 0 64 40q40 182 168 182l110 -18h14q66 0 80 94h4v-130q-14 -20 -54 -34h-70l-84 20h-4l-6 -4q-62 0 -84 -120q-34 -76 -108 -104h-68l-74 20h-26l-4 -4q-42 0 -70 -124q-50 -94 -142 -94q-42 0 -104 20h-20q-22 0 -64 -34q-36 -122 -54 -128h-20z M1298 1362v54q40 134 158 134l26 -4q98 0 138 -138v-36q-34 -142 -164 -142q-32 0 -68 14q-90 54 -90 118z" />
<glyph unicode="v" d="M30 912q0 -24 10 -24q0 -112 88 -296q58 -118 168 -236q192 -206 506 -280q64 -4 74 -14h1090l10 1086l-30 138l-34 116q-80 192 -242 350q-84 82 -250 172q-130 56 -294 82h-246q-24 0 -24 -8q-110 -2 -280 -84q-130 -44 -330 -256q-130 -176 -142 -240 q-50 -104 -74 -260v-246zM330 632v4l6 6q46 14 102 84q104 74 104 92v20l-6 6l16 8l4 50q14 138 40 152v34l-6 6h6l4 4q16 104 50 128v4l-6 6l108 68h104q88 -32 132 -112q86 -154 104 -172v-6l-6 -4l10 -10q18 -48 30 -50q10 -28 20 -28v-6l-6 -4l16 -10q0 -20 10 -20h44 l14 10h84l84 -30l92 -54h84q84 36 84 70l44 44q54 28 58 38h6l4 -4h6l14 10h4v-84h-10q-94 -94 -146 -132h-6l-4 4h-6q-18 -18 -88 -18l-54 4q-26 0 -166 78h-88l-16 -14h-4l-6 4l-4 -4q-24 -10 -94 -78q-20 -40 -112 -70h-138l-162 74h-54q-74 -24 -74 -34l-14 4h-6 q-102 -102 -146 -122h-6q-28 0 -54 54zM488 446l44 44q6 20 58 44q34 6 34 14q54 0 60 10h44l4 -4q26 0 124 -36q8 -20 78 -44h94l20 10q16 0 86 64q74 72 124 88h16q58 0 78 10v-4q68 -6 202 -84h8l6 6l4 -6h26l24 6l14 -6h6q16 4 146 132v-126q-18 0 -38 -30 q-48 -18 -50 -30l-68 -20h-78l-6 6q-90 20 -102 48q-26 0 -26 10q-44 10 -58 24h-70q-44 -18 -136 -112q-34 -42 -182 -64h-10q-24 0 -24 10q-84 12 -192 78h-84l-4 -4q-54 0 -104 -84q-18 0 -68 50zM606 1526v30q34 98 54 98q10 28 102 58h40l4 -4q66 0 138 -98l14 -54v-40 q-24 -72 -64 -108l-58 -40q-40 0 -50 -10h-14l-4 6q-72 12 -128 68zM1288 1064v10l24 24h6q0 -14 20 -24l-16 -14h-10zM1382 1240v10q14 0 24 20l20 -20v-20h-26zM1446 990v20h34l4 4v-4l6 -6v-18l-6 -6q-20 0 -20 -10zM1562 1078l30 20l16 -14v-24l-6 -6q-24 0 -40 24z" />
<glyph unicode="w" d="M32 956q18 -160 48 -220q128 -382 484 -558q198 -98 352 -98h1042l10 1066l-6 20q0 102 -68 264q-130 304 -416 464q-220 122 -386 122h-200q-128 -18 -210 -48q-336 -126 -514 -412q-102 -162 -136 -400v-200zM530 1424l4 16q0 116 94 210q86 64 152 72h122l4 -4 q74 -10 162 -98q258 -442 288 -494q148 -252 148 -298v-44q0 -18 -3 -26t-7 -8q0 -94 -148 -190q-42 -34 -162 -60h-38q-66 12 -94 30q-66 18 -160 186l-246 430q-116 168 -116 278zM588 1430q0 -66 20 -104q128 -236 182 -308h14l220 128l180 108v4q0 38 -102 192 q-96 224 -268 224l-60 -10q-186 -64 -186 -234zM614 940l58 40h4l142 -240q120 -202 142 -230q110 -88 206 -88l68 10q180 78 270 162q58 80 68 150v70l-10 44q0 26 -264 478l54 34q20 -8 78 -122q214 -336 214 -424v-88q-30 -146 -132 -236q-52 -30 -52 -38l112 -192v-4 h-142v4q-66 124 -84 132q-46 -28 -142 -48v4l-38 -10l-40 10l-4 -4l-54 14q-138 38 -190 128zM1714 266l58 40h10v-40h-68z" />
<glyph unicode="x" d="M32 916l4 -6q8 -78 30 -136l44 -118q116 -308 460 -482q124 -62 260 -88l1134 -10l10 1094l-10 16v34q-66 326 -328 574q-218 164 -388 200l-114 24h-264l-4 -4q-64 -6 -64 -14l-40 -6q-310 -82 -530 -348q-88 -108 -152 -270q-22 -88 -30 -88q-8 -102 -18 -108v-264z M404 1548v10h6v-10h-6zM414 1558v10q68 82 98 88l14 -30l-108 -68h-4zM478 822q0 20 122 210l98 154q38 68 84 82h34l230 -54q210 -48 232 -64q76 0 186 -210v-6h-6q-82 -56 -82 -136q-18 -42 -54 -60h-44q-12 14 -90 26l-78 -26q-74 -64 -74 -112q0 -62 -72 -88l-114 20 h-20q-68 -12 -68 -26q-52 0 -108 -180q-34 0 -102 58v10l206 304q200 296 200 308q0 10 -98 30h-14l-138 -206q-62 -122 -128 -122h-10q-70 0 -92 88zM620 1268v24l54 202v14l68 -18l-54 -232h-14l-40 10h-14zM620 1720v14l34 20q190 78 290 78h64v-24q0 -52 -50 -122 q-32 -46 -136 -74h-36q-86 0 -166 108zM714 322l24 58q0 54 102 104h64l88 -20q30 6 64 30l44 118q26 48 94 72h54l84 -18h24l4 4q50 0 80 132q58 88 136 88l114 -18h10q64 0 82 98h6v-128q-6 -14 -60 -34h-68l-78 14h-10q-72 0 -88 -118q-38 -76 -114 -102h-54l-102 18 l-44 -24l-44 -122q-66 -74 -118 -74l-152 20l-6 -6q-52 -24 -74 -116q-18 0 -62 24zM910 282v6l68 14h10l108 -14h10q64 0 98 136q49 84 124 84h4q62 -2 62 -20l16 6l34 -10q78 18 78 64l34 98q64 64 118 64h30q84 -16 84 -26v-64l-84 20h-40l-54 -38q-32 -104 -38 -104 q0 -48 -118 -84h-14q-64 10 -74 20h-60l-38 -28q-28 -128 -64 -144h-260q-26 0 -34 20zM934 1504q20 24 58 40q22 -22 134 -216v-6l-54 -34h-10l-6 4q-102 192 -122 212zM1116 1690l18 74l232 -64q-16 -64 -24 -64zM1394 1156l16 64q32 64 112 92h54l34 -10 q104 -40 104 -146q0 -112 -118 -158h-78q-124 54 -124 158z" />
<glyph unicode="y" d="M34 960q0 -106 30 -174h-6q110 -348 376 -538q50 -24 50 -34q242 -136 444 -136h1028l10 1040v5q0 234 -176 491q-66 100 -194 200q-104 82 -206 122l-122 50l-14 -6q-56 30 -170 30h-166q-112 0 -176 -30v6l-122 -44q-362 -130 -502 -484l-60 -146l6 -14 q-30 -52 -30 -172v-166zM220 980l4 6v72l-4 26l898 -236q20 0 68 206v10q-88 44 -88 106v16q0 38 160 560h10l16 -10l-104 -434q0 -24 36 -24h4q10 0 24 54l108 386h28l-96 -450l14 -14h30l126 420h10l10 -16h4l-92 -394v-24q4 -16 30 -16h8l6 6l88 278q20 68 28 88 q10 -4 20 -26l-92 -384q-38 -152 -118 -152h-44q-14 -4 -62 -214v-6l530 -140l-4 -26v-102l4 -24l-4 -4l-542 156h-18l-74 -274q-36 -136 -44 -136l-20 4h-92l-24 -4l126 444q0 14 -180 58h-6q-40 -54 -112 -54h-24q-66 0 -160 30q-240 72 -372 160z" />
<glyph unicode="z" d="M40 904l6 -6l28 -136l44 -116q114 -304 458 -476q122 -62 258 -88l1122 -10l10 1084l-10 16v34q-36 182 -112 312q-72 122 -214 256q-214 164 -384 200l-112 24h-262l-4 -4q-100 -16 -156 -34q-356 -124 -536 -420q-84 -138 -112 -262l-24 -112v-262zM410 1390v38l20 70 q68 92 150 92h20l54 -20q96 -36 106 -160l-4 -40q-44 -130 -166 -130q-72 0 -122 38q-58 42 -58 112zM464 480q30 240 48 370q36 262 54 262q66 88 150 88h40q38 0 112 -48l272 -390v-14q-6 0 -78 -64q-214 -188 -214 -194h-10q-84 126 -102 142h-4l-10 -10q-34 0 -34 -10 q-20 0 -20 -10v-30l-30 -214v-4h-10q-90 42 -164 126zM872 1804l64 10h58v-6q72 -48 72 -140q0 -36 -58 -156v-20q0 -50 98 -102q52 -28 78 -136q-18 -66 -34 -88q-34 -56 -34 -72q0 -18 24 -58q118 -56 136 -122v-4l-68 -20l-24 38q-136 54 -136 166q0 56 58 140v30 q0 24 -34 64q-132 54 -132 170v14l6 38q48 96 48 122v6l-14 48zM1188 1560v34q58 122 58 146l-4 24v6l4 4l74 -24v-38l-16 -40q-42 -76 -42 -102q0 -38 38 -78q132 -64 132 -166l-6 -48q-52 -90 -52 -106v-26q0 -42 86 -82q68 -46 68 -88l-62 -14h-10l-10 24l-112 74 q-28 38 -38 96l4 34l58 126v16q0 44 -68 82q-102 60 -102 146zM1208 476l68 276l210 64h52l34 -10l210 -200v-320l-180 174h-6l-4 -4l48 -194v-6h-228l-68 244q-44 0 -122 -30zM1442 1642l4 30l64 -44q40 -72 78 -82q96 -104 102 -160l-6 -16q-58 -118 -58 -136v-14 q0 -28 20 -48q136 -84 136 -108v-20q-38 -4 -64 -18q-34 48 -68 58q-72 34 -96 112v58l58 136q0 38 -30 68q-140 66 -140 184z" />
<glyph unicode="&#x2000;" horiz-adv-x="1018" />
<glyph unicode="&#x2001;" horiz-adv-x="2036" />
<glyph unicode="&#x2002;" horiz-adv-x="1018" />
<glyph unicode="&#x2003;" horiz-adv-x="2036" />
<glyph unicode="&#x2004;" horiz-adv-x="678" />
<glyph unicode="&#x2005;" horiz-adv-x="509" />
<glyph unicode="&#x2006;" horiz-adv-x="339" />
<glyph unicode="&#x2007;" horiz-adv-x="339" />
<glyph unicode="&#x2008;" horiz-adv-x="254" />
<glyph unicode="&#x2009;" horiz-adv-x="407" />
<glyph unicode="&#x200a;" horiz-adv-x="113" />
<glyph unicode="&#x202f;" horiz-adv-x="407" />
<glyph unicode="&#x205f;" horiz-adv-x="509" />
<glyph unicode="&#xe000;" horiz-adv-x="2020" d="M0 0v2020h2020v-2020h-2020z" />
</font>
</defs>
</svg>
